<svg id="Layer_2" data-name="Layer 2" xmlns="http://www.w3.org/2000/svg" viewBox="0 0 377.61 192.3"><defs><style>.cls-1{font-size:54.13px;fill:#292300;font-family:ProximaNova-Black, Proxima Nova;letter-spacing:0.1em;}.cls-2,.cls-3,.cls-4{font-family:ProximaNova-Regular, Proxima Nova;}.cls-3{letter-spacing:0.06em;}.cls-4{letter-spacing:0.1em;}.cls-5{fill:#fc0;}</style></defs><title>Abbey Road-02</title><text class="cls-1" transform="translate(0.97 177.57)">ABBEY<tspan class="cls-2" x="209.16" y="0">R</tspan><tspan class="cls-3" x="247.48" y="0">O</tspan><tspan class="cls-4" x="292.3" y="0">AD</tspan></text><path class="cls-5" d="M396.36,314.08a34.57,34.57,0,0,0-14.09-8.57h.37a8.27,8.27,0,1,0,0-16.55H359.9l-9.61-9.61A30.71,30.71,0,0,0,298,303.93l-1,0a34.74,34.74,0,1,0,24.56,59.3l12.86-12.86,12.86,12.86a34.74,34.74,0,1,0,49.13-49.13Zm-77.83-23a14.18,14.18,0,0,1,20,0l10.24,10.24A14.31,14.31,0,0,0,359,305.51h2.31a34.57,34.57,0,0,0-14.09,8.57l-12.86,12.86-5.84-5.83-10-10A14.19,14.19,0,0,1,318.54,291Zm-8.73,60.45a18.19,18.19,0,0,1-25.72,0h0a18.19,18.19,0,1,1,25.72-25.72l12.86,12.86Zm74.85,0a18.19,18.19,0,0,1-25.72,0l-12.86-12.86,12.86-12.86a18.19,18.19,0,1,1,25.72,25.72Z" transform="translate(-161.19 -253.85)"/><circle class="cls-5" cx="200.61" cy="11.78" r="11.78"/></svg>